<?xml version="1.0" encoding="utf-8"?>
<!-- Generator: Adobe Illustrator 25.4.1, SVG Export Plug-In . SVG Version: 6.00 Build 0)  -->
<svg version="1.1" id="Layer_1" xmlns="http://www.w3.org/2000/svg" xmlns:xlink="http://www.w3.org/1999/xlink" x="0px" y="0px"
	 viewBox="0 0 24 24" style="enable-background:new 0 0 24 24;" xml:space="preserve">
<path d="M3.5,20.5L3.5,20.5c-0.4-0.4-0.4-1,0-1.4L19.1,3.5c0.4-0.4,1-0.4,1.4,0l0,0c0.4,0.4,0.4,1,0,1.4L4.9,20.5
	C4.5,20.9,3.9,20.9,3.5,20.5z"/>
<path d="M20.5,20.5L20.5,20.5c0.4-0.4,0.4-1,0-1.4L4.9,3.5c-0.4-0.4-1-0.4-1.4,0l0,0c-0.4,0.4-0.4,1,0,1.4l15.6,15.6
	C19.5,20.9,20.1,20.9,20.5,20.5z"/>
</svg>
